<svg width="28" height="28" viewBox="0 0 28 28" fill="none" xmlns="http://www.w3.org/2000/svg">
<path d="M14 0C11.2311 0 8.52431 0.821086 6.22202 2.35943C3.91973 3.89777 2.12532 6.08427 1.06569 8.64243C0.00606593 11.2006 -0.271181 14.0155 0.269012 16.7313C0.809205 19.447 2.14258 21.9416 4.10051 23.8995C6.05845 25.8574 8.55301 27.1908 11.2687 27.731C13.9845 28.2712 16.7994 27.9939 19.3576 26.9343C21.9157 25.8747 24.1022 24.0803 25.6406 21.778C27.1789 19.4757 28 16.7689 28 14C28 10.287 26.525 6.72601 23.8995 4.10051C21.274 1.475 17.713 0 14 0V0ZM19.8979 20.1276L13.0533 15.4599C13.0261 15.4429 13.0003 15.4245 12.9745 15.4061L12.8966 15.3532L12.9045 15.3492C12.6346 15.1438 12.4294 14.8652 12.3134 14.5465C12.1974 14.2278 12.1754 13.8824 12.25 13.5516L13.9313 3.62513C13.9351 3.59773 13.9487 3.57263 13.9696 3.55447C13.9905 3.5363 14.0172 3.5263 14.0449 3.5263C14.0725 3.5263 14.0992 3.5363 14.1201 3.55447C14.141 3.57263 14.1546 3.59773 14.1584 3.62513L15.8721 13.9379L20.0576 19.9692C20.0737 19.9912 20.0813 20.0182 20.0791 20.0453C20.077 20.0724 20.0651 20.0979 20.0458 20.117C20.0265 20.1362 20.001 20.1478 19.9738 20.1497C19.9467 20.1517 19.9198 20.1438 19.8979 20.1276Z" fill="white"/>
</svg>
