<svg width="28" height="28" viewBox="0 0 28 28" fill="none" xmlns="http://www.w3.org/2000/svg">
<path fill-rule="evenodd" clip-rule="evenodd" d="M28 14C28 21.732 21.732 28 14 28C6.26801 28 0 21.732 0 14C0 6.26801 6.26801 0 14 0C21.732 0 28 6.26801 28 14ZM16.4862 10.0994C15.7682 9.64079 14.9151 9.375 14 9.375C11.4457 9.375 9.375 11.4457 9.375 14C9.375 14.9152 9.64081 15.7683 10.0995 16.4863L16.4862 10.0994ZM11.5137 17.9005L17.9005 11.5136C18.3592 12.2316 18.625 13.0848 18.625 14C18.625 16.5543 16.5543 18.625 14 18.625C13.0848 18.625 12.2317 18.3592 11.5137 17.9005ZM9.32517 18.6943C10.5233 19.8875 12.1755 20.625 14 20.625C17.6589 20.625 20.625 17.6589 20.625 14C20.625 10.3411 17.6589 7.375 14 7.375C10.3411 7.375 7.375 10.3411 7.375 14C7.375 15.8245 8.11251 17.4767 9.30567 18.6748C9.30887 18.6781 9.3121 18.6814 9.31536 18.6846C9.31861 18.6879 9.32188 18.6911 9.32517 18.6943Z" fill="white"/>
</svg>
