<svg xmlns="http://www.w3.org/2000/svg" width="32" height="29" viewBox="0 0 32 29">
  <g id="create-ticket_icon" transform="translate(0 -1.5)">
    <path id="Path_13" data-name="Path 13" d="M26,23.5h5V8.5m-5,0h5v-6H6v6Z" fill="none" stroke="#2fcd94" stroke-linecap="round" stroke-linejoin="round" stroke-width="2"/>
    <path id="Path_14" data-name="Path 14" d="M1,14.5v15H26v-15M1,8.5H26v6H1Z" fill="none" stroke="#2fcd94" stroke-linecap="round" stroke-linejoin="round" stroke-width="2"/>
    <path id="Path_15" data-name="Path 15" d="M4,12a.5.5,0,1,0-.5-.5A.5.5,0,0,0,4,12Z" fill="none" stroke="#2fcd94" stroke-linecap="round" stroke-linejoin="round" stroke-width="2"/>
    <path id="Path_16" data-name="Path 16" d="M7.5,12a.5.5,0,1,0-.5-.5A.5.5,0,0,0,7.5,12Z" fill="none" stroke="#2fcd94" stroke-linecap="round" stroke-linejoin="round" stroke-width="2"/>
    <path id="Path_17" data-name="Path 17" d="M11,12a.5.5,0,1,0-.5-.5A.5.5,0,0,0,11,12Z" fill="none" stroke="#2fcd94" stroke-linecap="round" stroke-linejoin="round" stroke-width="2"/>
    <path id="Path_18" data-name="Path 18" d="M9,6a.5.5,0,1,0-.5-.5A.5.5,0,0,0,9,6Z" fill="none" stroke="#2fcd94" stroke-linecap="round" stroke-linejoin="round" stroke-width="2"/>
    <path id="Path_19" data-name="Path 19" d="M12.5,6a.5.5,0,1,0-.5-.5A.5.5,0,0,0,12.5,6Z" fill="none" stroke="#2fcd94" stroke-linecap="round" stroke-linejoin="round" stroke-width="2"/>
    <path id="Path_20" data-name="Path 20" d="M16,6a.5.5,0,1,0-.5-.5A.5.5,0,0,0,16,6Z" fill="none" stroke="#2fcd94" stroke-linecap="round" stroke-linejoin="round" stroke-width="2"/>
  </g>
</svg>
