<svg xmlns="http://www.w3.org/2000/svg" width="496" height="510.371" viewBox="0 0 496 510.371">
  <g id="datpiff" transform="translate(-58.913 -10.017)">
    <path id="Path_1" data-name="Path 1" d="M378.1,100.083l-1.433-13.668-3.125-13.7c-1.655-7.27-4.961-13.932-7.707-20.794-6.266-11.14-14.475-20.449-25.521-27.089-1.2-.572-2.388-1.157-3.594-1.709-16.509-7.493-33.409-9.5-50.7-3.063-11.939,4.442-22.342,11.482-31.75,20.029-3.014-.506-4.652,1.733-6.422,3.425C239.6,51.4,232.494,60.33,225.693,69.425c-12.561,16.8-24.343,34.113-31.148,54.207.638-2.882,1.783-5.632,2.285-8.575,1.548-9.049,3.166-18.09,4.8-27.126,2.536-14.026,5.327-28.011,6.925-42.194a40.978,40.978,0,0,1,.124-4.771,3.442,3.442,0,0,0-1.062-2.149c-.119-1.684-.156-3.376-.366-5.043-.93-7.435-3.685-9.337-11.009-7.526-2.557.63-5.056,1.494-7.583,2.252-2-.7-3.825-.054-5.57.856-15.216,7.958-28.781,18.308-42.075,29.049-3.285,3.018-5.027,7-6.8,10.955-2.8,6.254-5.233,12.655-7.5,19.115a11.482,11.482,0,0,0-1.741,3.965c-3.269,10.576-4.693,21.511-6.455,32.392-1.317,8.143-.35,16.439-2.063,24.52.309,12-1.445,23.977-.65,35.994-.074,1.7-.185,3.388-.21,5.088-.165,12.359.453,24.681,1.313,37.007.235,3.355.906,6.69.7,10.082a82.781,82.781,0,0,0,1.013,8.963c1.3,10.49,2.182,21.041,4.586,31.375a19.321,19.321,0,0,0,.136,2.174c2.273,12.981,4.524,25.965,8.086,38.678,1.21,8.1,3.594,15.924,5.69,23.812.91,3.425,1.194,7.159,4.084,9.778q3.619,12.4,7.246,24.8l2.935,9.481a53.336,53.336,0,0,1,3,9.473q2.137,6.2,4.265,12.4l4.4,12.4a25.159,25.159,0,0,1,2.363,6.538l2.66,6.587,3.952,10.169,5.652,13.158,5.768,12.4c2.359,4.57,5.06,8.975,6.8,13.845l8.785,14.533c1.4,1.107,1.8,3.24,4.454,3.009a166.992,166.992,0,0,0,23.8-3.771c8.823-3.108,17.369-6.69,23.833-13.857a32.452,32.452,0,0,0,5.5-12.3c.263-4.2.44-8.419-.782-12.5-1.227-4.1-2.668-8.135-4.014-12.2a62.087,62.087,0,0,1-4.249-10.72,77.067,77.067,0,0,1-5.739-14.022Q239,415.1,236.171,408.47,233.985,403,231.8,397.531l-2.915-7.291-1.453-3.643q-2.4-6.515-4.8-13.034a32.324,32.324,0,0,1-2.635-7.32,10.76,10.76,0,0,1-1.622-4.385,50.2,50.2,0,0,1-3.553-10.049c-1.186-1.626-1.087-2.651,1.07-3.442,7.452-2.734,14.841-5.632,22.256-8.469,10.613-5.113,21.149-10.379,31.363-16.266q9.127-6.07,18.25-12.149,7.67-6.243,15.335-12.495,5.033-4.712,10.062-9.424,4.953-5.428,9.9-10.86l7.044-8.761,8.044-11.659,6.723-11.663c3.965-7.686,7.13-15.731,10.609-23.639,1.482-5.661,3.771-11.046,5.751-16.533q1.637-5.07,3.277-10.136,2.909-10.937,5.813-21.873,1.1-4.737,2.207-9.477l2.668-13.882a80.856,80.856,0,0,1,1.684-13.121c.581-1.243-.074-2.655.543-3.89l.206-4.133c.618-1.733-.185-3.6.527-5.327l.1-2.664.1-6.558Q378.222,107.724,378.1,100.083ZM193.428,127.708v-.037l.037-.193A2.3,2.3,0,0,0,193.428,127.708Zm111.235,17.661a132.008,132.008,0,0,1-5.78,30.774h0a335.2,335.2,0,0,1-13.195,36.974c-.424.992-1,1.914-1.511,2.869a229.9,229.9,0,0,1-31.256,51.943,161.385,161.385,0,0,1-25.039,26.616,110.69,110.69,0,0,1-17.262,12.046c-1.025.56-1.947,1.482-3.656,1.239.749-13.866,1.083-27.752,2.89-41.544.683-13.03,2.721-25.9,4.673-38.773.663-4.376,1.552-8.72,2.338-13.079a297.593,297.593,0,0,1,9.8-40.012,235.213,235.213,0,0,1,10.65-29.95,240.968,240.968,0,0,1,17.608-36.426c6.735-12.544,14.529-24.343,25.1-34.014,8.592-7.859,12.767-6.925,17.484,3.8a88.649,88.649,0,0,1,7.159,30.214,131.068,131.068,0,0,1,0,37.323Z" transform="translate(176.574 19.275)" fill="#2fcd94"/>
    <path id="Path_2" data-name="Path 2" d="M308.628,367.661a161.442,161.442,0,0,1-15.372-30.239,244.6,244.6,0,0,1-9.979-39.209c-1.647-12.606-4.2-25.1-4.8-37.847-.288-2.5-1.3-4.916-.634-7.534.869-3.438.77-6.966.807-10.486s.136-7.007.346-10.519c.548-9.057,1.3-18.1,1.6-27.172,1.424-13.619,1.9-27.32,3.343-40.938-.762-2.565.317-5.01.469-7.517.758-12.45,1.622-24.891,2.4-37.336-.967-3.812-.576-7.6.1-11.4a11.9,11.9,0,0,1,.14-1.272,11.387,11.387,0,0,0,.226-3.981c-.86-7.818-.955-15.714-2.375-23.479-1.523-9.234-3.236-18.415-6.2-27.328-.679-2.03-1.478-3.779-3.339-4.911-2.342-5.467-4.981-10.79-7.851-16A73.743,73.743,0,0,0,252.93,14.448c-7.818-6.114-15.846-5.455-24-.741a54.834,54.834,0,0,0-10.478,9.065c-2.606,2.964-5.014,6.134-7.616,9.123l-9.617,14.582c-1.914,4.43-4.656,8.5-5.743,13.289-.012.576-.029,1.153-.045,1.725.086,2.021-.539,4.1.527,6.044l.058,1.494.152,2.66c-.012,1.317-.333,2.68.548,3.87l.2,2.878h-.037c-.008,1.26-.288,2.561.564,3.685.638,4.615,1.515,9.2,1.593,13.882a55.974,55.974,0,0,1,1.523,11.663l2.149,14.442c.552,2.507.552,2.507-.852,3.1-15.965-13.458-33.656-15.191-52.807-8.024-5.8,2.174-11.26,5.068-17.023,7.283q-12.079,7.966-24.158,15.928c-4.833,4-10.025,7.571-14.459,12.05-3.549,3.03-5.554,7.312-8.674,10.687-4.524,7.456-7.9,15.488-11.676,23.318l-6.682,19.761q-1.47,6.169-2.935,12.347a149.753,149.753,0,0,0-3.067,20.362c-.564,1.243.078,2.651-.531,3.886a84.983,84.983,0,0,1-.832,12.857l-.1,10.936q.1,12.8,1.445,25.517l2.968,16.039q1.457,5.107,2.915,10.21c2.635,7.18,5.665,14.2,8.9,21.12l5.644,9.5a159.42,159.42,0,0,0,16.85,20.42,194.453,194.453,0,0,0,18.086,13.845A146.188,146.188,0,0,0,137.044,392l8.04,1.556c1.21.626,2.627-.1,3.833.572,18.975,1.317,35.941-3.89,50.741-15.846,4.043-3.265,7.76-6.925,11.63-10.4a6.677,6.677,0,0,0,3.89-2.388,142.357,142.357,0,0,0,22.128-34.314c.346.268.3.646.371.984,2.133,9.687,4.364,19.358,8.271,28.522,1.371,3.211,2.742,6.546,6.435,7.925a34.809,34.809,0,0,0,18.25,10.626c13.429,2.861,26.27.2,38.925-4.175,1.079-.37,1.626-.959,1.037-2.124a18.776,18.776,0,0,0-1.967-5.277Zm-88.349-90.613a89.221,89.221,0,0,1-5.76,13.685c-4.269,8.123-8.119,16.464-12.865,24.331a42.462,42.462,0,0,1-2.569,3.479,75.185,75.185,0,0,1-16.105,18.563c-16.241,13.4-33.845,11.05-45.941-6.159a45.041,45.041,0,0,1-6.649-12.38c-4.475-8.781-6.863-18.234-8.9-27.8A110.317,110.317,0,0,1,118,268.242a114.751,114.751,0,0,1-1.317-26.426,148.972,148.972,0,0,1,2.24-26.266c1.655-13.166,4.578-25.99,10.445-37.991a36.5,36.5,0,0,1,7.546-10.613c7.773-7.39,18.057-7.3,25.657.288,4.018,4.014,6.632,8.938,8.732,14.133a124.5,124.5,0,0,1,7.876,33.475c.478,4.463,1.14,8.909,1.367,13.384.144,2.861.992,2.952,3.2,1.7,12.585-7.151,23.89-15.751,32.137-27.888.321-.473.733-.881,1.56-1.853,2.631,14.22,5.883,27.723,6.958,41.61.548,4.483,1.186,8.967,1.7,13.438.453,3.9-1.145,7.81-2.956,11.412.205,3.779-1.66,7.015-2.866,10.4Z" fill="#2fcd94"/>
  </g>
</svg>
