<svg xmlns="http://www.w3.org/2000/svg" width="448" height="448" viewBox="0 0 448 448">
  <path id="imdb" d="M400,32H48A48.012,48.012,0,0,0,0,80V432a48.012,48.012,0,0,0,48,48H400a48.012,48.012,0,0,0,48-48V80A48.012,48.012,0,0,0,400,32ZM21.3,229.2H21c.1-.1.2-.3.3-.4ZM97,319.8H64V192H97Zm113.2,0H181.5V233.4l-11.6,86.4H149.3l-12.2-84.5v84.5h-29V192h42.8c3.3,19.8,6,39.9,8.7,59.9l7.6-59.9h43Zm11.4,0V192h24.6c17.6,0,44.7-1.6,49,20.9,1.7,7.6,1.4,16.3,1.4,24.4,0,88.5,11.1,82.6-75,82.5Zm160.9-29.2c0,15.7-2.4,30.9-22.2,30.9-9,0-15.2-3-20.9-9.8l-1.9,8.1H307.7V192h31.7v41.7c6-6.5,12-9.2,20.9-9.2,21.4,0,22.2,12.8,22.2,30.1ZM265,229.9c0-9.7,1.6-16-10.3-16v83.7c12.2.3,10.3-8.7,10.3-18.4ZM350.5,256c0-5.4,1.1-12.7-6.2-12.7-6,0-4.9,8.9-4.9,12.7,0,.6-1.1,39.6,1.1,44.7a4.114,4.114,0,0,0,3.8,2.4c7.8,0,6.2-9,6.2-14.4Z" transform="translate(0 -32)" fill="#2fcd94"/>
</svg>
