<svg width="10" height="12" viewBox="0 0 10 12" fill="none" xmlns="http://www.w3.org/2000/svg">
<path d="M8 11.625V9.09619C8.00002 8.67482 7.89861 8.25964 7.70433 7.88574C7.51005 7.51184 7.22862 7.19019 6.88381 6.948L5.8475 6.22031C5.82286 6.20302 5.80274 6.18004 5.78886 6.15333C5.77497 6.12661 5.76772 6.09695 5.76772 6.06684C5.76772 6.03674 5.77497 6.00707 5.78886 5.98036C5.80274 5.95365 5.82286 5.93067 5.8475 5.91337L6.88363 5.18569C7.22846 4.94351 7.50993 4.62188 7.70425 4.24798C7.89856 3.87407 8 3.45888 8 3.0375V0.375M2 0.375V3.0375C2 3.45888 2.10144 3.87407 2.29575 4.24798C2.49007 4.62188 2.77154 4.94351 3.11638 5.18569L4.1525 5.91337C4.17714 5.93067 4.19726 5.95365 4.21114 5.98036C4.22503 6.00707 4.23228 6.03674 4.23228 6.06684C4.23228 6.09695 4.22503 6.12661 4.21114 6.15333C4.19726 6.18004 4.17714 6.20302 4.1525 6.22031L3.11638 6.948C2.77154 7.19017 2.49007 7.51181 2.29575 7.88571C2.10144 8.25962 2 8.67481 2 9.09619V11.625M1.4375 11.625H8.5625M1.4375 0.375H8.5625" stroke="#EC9E2A" stroke-miterlimit="10" stroke-linecap="round" stroke-linejoin="round"/>
</svg>
