<svg xmlns="http://www.w3.org/2000/svg" width="497" height="497" viewBox="0 0 497 497">
  <path id="ios" d="M255.9,120.9l9.1-15.7a20.429,20.429,0,1,1,35.4,20.4L212.9,277.1h63.3c20.5,0,32,24.1,23.1,40.8H113.8a20.4,20.4,0,1,1,0-40.8h52l66.6-115.4-20.8-36.1A20.429,20.429,0,1,1,247,105.2l8.9,15.7Zm-78.7,218-19.6,34a20.429,20.429,0,1,1-35.4-20.4l14.6-25.2c16.4-5.1,29.8-1.2,40.4,11.6Zm168.9-61.7h53.1a20.4,20.4,0,0,1,0,40.8H369.7l19.9,34.5a20.429,20.429,0,1,1-35.4,20.4q-50.25-87.15-75.4-130.6c-17.1-29.5-4.9-59.1,7.2-69.1q20.1,34.5,60.1,104ZM256,8C119,8,8,119,8,256S119,504,256,504,504,393,504,256,393,8,256,8ZM472,256c0,118.7-96.1,216-216,216C137.3,472,40,375.9,40,256,40,137.3,136.1,40,256,40,374.7,40,472,136.1,472,256Z" transform="translate(-7.5 -7.5)" fill="#2fcd94" stroke="#2fcd94" stroke-width="1"/>
</svg>
