<svg width="28" height="28" viewBox="0 0 28 28" fill="none" xmlns="http://www.w3.org/2000/svg">
<path fill-rule="evenodd" clip-rule="evenodd" d="M14 28C21.732 28 28 21.732 28 14C28 6.26801 21.732 0 14 0C6.26801 0 0 6.26801 0 14C0 21.732 6.26801 28 14 28ZM19.5443 7.4981C19.6919 7.35944 19.7749 7.1714 19.775 6.97531C19.775 6.87818 19.7546 6.78201 19.715 6.69228C19.6754 6.60255 19.6174 6.52103 19.5443 6.45236C19.4711 6.38369 19.3843 6.32923 19.2887 6.29209C19.1931 6.25494 19.0907 6.23584 18.9872 6.23587H9.5375C9.43408 6.23587 9.33168 6.255 9.23614 6.29216C9.14059 6.32932 9.05378 6.38378 8.98065 6.45245C8.90753 6.52111 8.84952 6.60262 8.80995 6.69234C8.77037 6.78205 8.75 6.8782 8.75 6.97531C8.75 7.07241 8.77037 7.16856 8.80995 7.25828C8.84952 7.34799 8.90753 7.4295 8.98065 7.49817C9.05378 7.56683 9.14059 7.6213 9.23614 7.65846C9.33168 7.69562 9.43408 7.71474 9.5375 7.71474H18.9875C19.1963 7.71468 19.3966 7.63675 19.5443 7.4981ZM11.6393 11.9645C11.7954 12.0948 12.0002 12.1615 12.2088 12.15C12.4173 12.1385 12.6124 12.0497 12.7512 11.9031L13.4749 11.1386V17.8204L12.7512 17.0555C12.6124 16.909 12.4173 16.8202 12.2088 16.8087C12.0002 16.7972 11.7954 16.8639 11.6393 16.9942C11.4832 17.1245 11.3886 17.3076 11.3764 17.5034C11.3641 17.6991 11.4352 17.8914 11.5739 18.038L14.2624 20.8782L16.9512 18.038C17.09 17.8914 17.161 17.6991 17.1487 17.5033C17.1364 17.3075 17.0418 17.1243 16.8857 16.994C16.7296 16.8638 16.5247 16.797 16.3162 16.8086C16.1077 16.8201 15.9126 16.9089 15.7739 17.0555L15.0499 17.8204V11.1383L15.7739 11.9031C15.9126 12.0497 16.1077 12.1386 16.3162 12.1501C16.5247 12.1616 16.7296 12.0949 16.8857 11.9646C17.0418 11.8344 17.1364 11.6512 17.1487 11.4554C17.161 11.2596 17.09 11.0673 16.9512 10.9207L14.2624 8.08051L11.5739 10.9207C11.4352 11.0672 11.3641 11.2596 11.3764 11.4553C11.3886 11.6511 11.4832 11.8342 11.6393 11.9645ZM19.5443 22.6412C19.6919 22.5025 19.7749 22.3145 19.775 22.1184C19.775 22.0213 19.7546 21.9251 19.715 21.8354C19.6754 21.7456 19.6174 21.6641 19.5443 21.5955C19.4711 21.5268 19.3843 21.4723 19.2887 21.4352C19.1931 21.398 19.0907 21.3789 18.9872 21.379H9.5375C9.43408 21.379 9.33168 21.3981 9.23614 21.4353C9.14059 21.4724 9.05378 21.5269 8.98065 21.5955C8.90753 21.6642 8.84952 21.7457 8.80995 21.8354C8.77037 21.9251 8.75 22.0213 8.75 22.1184C8.75 22.2155 8.77037 22.3117 8.80995 22.4014C8.84952 22.4911 8.90753 22.5726 8.98065 22.6413C9.05378 22.7099 9.14059 22.7644 9.23614 22.8016C9.33168 22.8387 9.43408 22.8578 9.5375 22.8578H18.9875C19.1963 22.8578 19.3966 22.7799 19.5443 22.6412Z" fill="white"/>
</svg>
