<svg id="ok.ru" xmlns="http://www.w3.org/2000/svg" width="496" height="496" viewBox="0 0 496 496">
  <path id="Path_3" data-name="Path 3" d="M496,248c0,248,0,248-248,248S0,496,0,248,0,0,248,0,496,0,496,248Z" fill="#2fcd94"/>
  <path id="Path_4" data-name="Path 4" d="M436.1,398.33a179.7,179.7,0,0,0,55.752-23.1,28.155,28.155,0,1,0-29.983-47.663,121.923,121.923,0,0,1-129.28,0,28.154,28.154,0,1,0-29.983,47.662,179.689,179.689,0,0,0,55.752,23.1L304.741,452a28.12,28.12,0,1,0,39.768,39.767l52.748-52.748,52.748,52.748A28.12,28.12,0,1,0,489.772,452L436.1,398.33M397.257,184.284a39.743,39.743,0,1,1-39.767,39.759,39.743,39.743,0,0,1,39.767-39.759Zm0,135.722a96,96,0,1,0-96-96,96,96,0,0,0,96,96Z" transform="translate(-149.257 -66)" fill="#fff"/>
</svg>
