<svg id="other_icon" xmlns="http://www.w3.org/2000/svg" width="32" height="32" viewBox="0 0 32 32">
  <path id="Path_21" data-name="Path 21" d="M16,31A15,15,0,1,0,1,16,15,15,0,0,0,16,31Z" fill="none" stroke="#2fcd94" stroke-linecap="round" stroke-linejoin="round" stroke-miterlimit="10" stroke-width="2"/>
  <path id="Path_22" data-name="Path 22" d="M12,12.264A3.9,3.9,0,0,1,16.235,8.5,3.705,3.705,0,0,1,20,12.264c0,.95-.3,2.046-2.028,3.779S16,18.677,16,19.5v1" fill="none" stroke="#2fcd94" stroke-linecap="round" stroke-linejoin="round" stroke-miterlimit="10" stroke-width="2"/>
  <path id="Path_23" data-name="Path 23" d="M16,24.5a1,1,0,1,0-1-1A1,1,0,0,0,16,24.5Z" fill="#2fcd94"/>
</svg>
