<svg xmlns="http://www.w3.org/2000/svg" width="496.314" height="163.198" viewBox="0 0 496.314 163.198">
  <g id="payoneer" transform="translate(0 -15.68)">
    <g id="Group_2" data-name="Group 2" transform="translate(66.784 82.641)">
      <g id="Group_1" data-name="Group 1">
        <path id="Path_1" data-name="Path 1" d="M68.249,24.835c-5.1-.65-10.174-1.787-15.287-2.054C42.952,22.256,33.3,23.9,24.878,29.259,11.456,37.8,5.923,50.08,6.568,64.9c.3,7.052,3.258,13.042,10.471,16.138,7.3,3.115,14.5,2.093,20.789-2.456,3.033-2.188,5.42-5.121,8.443-8.064-.2,2.943-.318,5.742-.594,8.523-.184,1.739.451,2.408,2.367,2.341,3.719-.115,7.469-.115,11.189,0,2.018.067,2.48-.621,2.613-2.456A168.813,168.813,0,0,1,63.608,61.02c1.957-11.084,4.375-22.12,6.639-33.184C70.585,26.173,70.309,25.113,68.249,24.835ZM42.542,62.912A19.606,19.606,0,0,1,38.515,67.1a8.567,8.567,0,0,1-8.73,1.663c-3.238-1.213-4.406-3.956-4.6-6.851-.666-9.345,2.807-17.228,10.5-23.266,4.088-3.21,8.955-4.252,14.775-2.742C48.392,45.2,48.249,54.752,42.542,62.912Z" transform="translate(-6.518 -22.688)" fill="#2fcd94"/>
      </g>
    </g>
    <g id="Group_4" data-name="Group 4" transform="translate(123.098 15.68)">
      <g id="Group_3" data-name="Group 3">
        <path id="Path_2" data-name="Path 2" d="M200.434,25.921c-8.268-13.243-27.234-9.851-27.234-9.851-1.506.315-3.043.659-4.57.927a101.991,101.991,0,0,0-26.23,8.494,202.234,202.234,0,0,0-48.822,32.63Q79.071,71.134,65.454,85.037a251.76,251.76,0,0,0-40.4,53.737c-5.6,10.08-10.6,20.457-12.91,31.741-.43,2.073.287,4.462,1,6.564.307.822,1.947,1.462,3.094,1.8.307.076,1.24-1.3,1.65-2.112,2.654-5.37,4.744-11.045,7.992-16.062,6.486-10.061,13.269-19.989,20.533-29.563A338.842,338.842,0,0,1,85.7,88.3c13.494-12.612,27.306-24.9,44.334-33.4,7.818-3.908,15.748-7.7,23.955-10.835a197.82,197.82,0,0,1,43.965-11.208c1.6-.21,3.781-1.4,4.3-2.647C202.7,29.141,200.434,25.921,200.434,25.921Z" transform="translate(-12.014 -15.68)" fill="#2fcd94"/>
      </g>
    </g>
    <g id="Group_6" data-name="Group 6" transform="translate(0 61.586)">
      <g id="Group_5" data-name="Group 5">
        <path id="Path_3" data-name="Path 3" d="M69.068,38.269C67.91,30.711,61.1,24.3,51.281,22.045c-11.24-2.589-22.51-1.519-33.771.067-1.486.21-1.906,1.137-2.172,2.475C11.035,45.808,6.65,67.011,2.316,88.222,1.527,92.054.82,95.924,0,100.147c5.758,0,11.148.038,16.527-.086.43-.019,1.066-1.08,1.189-1.739,1.742-8.179,3.463-16.4,5.062-24.594.307-1.586.85-2.035,2.654-1.873a58.572,58.572,0,0,0,22.541-2.14C62.009,65.405,71.414,53.347,69.068,38.269ZM50.093,49.678c-2.777,5.532-7.828,8.16-14.047,8.781-3.207.325-6.486.067-10.164.067,1.67-8.275,3.135-15.613,4.682-22.932a2.159,2.159,0,0,1,1.383-1.376c4.375-.545,8.771-.85,13.033.573C50.984,36.76,53.259,43.41,50.093,49.678Z" transform="translate(0 -20.485)" fill="#2fcd94"/>
      </g>
    </g>
    <g id="Group_8" data-name="Group 8" transform="translate(134.043 26.582)">
      <g id="Group_7" data-name="Group 7">
        <path id="Path_4" data-name="Path 4" d="M37.022,52.937c-1.639-12.995-7.643-24.069-17.193-33.509a11.277,11.277,0,0,0-4.252-2.446c-1.588-.535-2.633.306-2.48,2,.133,1.481.277,2.981.553,4.453,1.936,10.214,3.811,20.447,5.891,30.652q2.444,11.953,5.348,23.83a30.429,30.429,0,0,0,3.053,7.424c.994,1.787,2.428,1.643,3.76.01a8.214,8.214,0,0,0,1.475-2.159,65.811,65.811,0,0,0,4.529-22.712C37.483,57.962,37.339,55.44,37.022,52.937Z" transform="translate(-13.083 -16.821)" fill="#2fcd94"/>
      </g>
    </g>
    <g id="Group_10" data-name="Group 10" transform="translate(448.527 82.681)">
      <g id="Group_9" data-name="Group 9">
        <path id="Path_5" data-name="Path 5" d="M68.233,35.463c.359-3.726.656-7.462.994-11.447-4.939,0-9.539-.057-14.068.076-.533.019-1.434,1.061-1.475,1.663C52.4,40.556,49.176,55.07,46.061,69.6c-.789,3.765-1.5,7.539-2.285,11.686,5.912,0,11.455.038,17.019-.076.42-.01,1.035-1.1,1.178-1.739,1.742-7.931,3.084-15.976,5.143-23.849,2.961-11.313,7.961-15.231,19.805-16.683a1.991,1.991,0,0,0,1.4-.984c1.117-4.911,2.121-9.822,3.238-15.135C80.139,21.714,73.766,27.848,68.233,35.463Z" transform="translate(-43.776 -22.692)" fill="#2fcd94"/>
      </g>
    </g>
    <g id="Group_12" data-name="Group 12" transform="translate(390.475 82.625)">
      <g id="Group_11" data-name="Group 11">
        <path id="Path_6" data-name="Path 6" d="M84.554,55.187c7.5-3.268,11.127-8.838,10.646-16.215-.5-7.558-4.764-12.928-12.766-14.992C69.359,20.617,57.915,23.875,48.714,33c-8.586,8.494-11.742,18.89-10.246,30.365,1.158,8.991,6.24,15.536,15.9,18,10.748,2.733,21.291,1.4,31.486-2.513a2.716,2.716,0,0,0,1.475-2.035c-.195-3.4-.635-6.832-1.035-10.453-1.25.449-2.2.783-3.146,1.08A39.738,39.738,0,0,1,65.7,69.538c-6.424-.726-10.666-4.949-10.072-10.463,1.783,0,3.463.038,5.143,0C68.919,58.9,77.023,58.455,84.554,55.187Zm-10.471-20.1c2.305.592,4.027,1.72,4.365,4.051a4.744,4.744,0,0,1-3.125,5.437,27,27,0,0,1-7.008,1.882c-3.566.449-7.182.487-11,.717C58.109,39.326,66.931,33.258,74.083,35.083Z" transform="translate(-38.11 -22.687)" fill="#2fcd94"/>
      </g>
    </g>
    <g id="Group_14" data-name="Group 14" transform="translate(260.278 82.625)">
      <g id="Group_13" data-name="Group 13">
        <path id="Path_7" data-name="Path 7" d="M88.467,34.72c-.738-6.211-5.225-10.673-11.732-11.7A25.354,25.354,0,0,0,56.1,28.777c-1.619,1.309-3.145,2.723-4.908,4.261.246-3.01.5-5.914.748-8.934H36.684C32.913,43.148,29.2,62.028,25.4,81.3c5.871,0,11.168.067,16.5-.086.594-.019,1.516-1.156,1.66-1.882,1.322-6.163,2.521-12.383,3.678-18.556,1.086-5.7,2.162-11.37,5.307-16.463,2.121-3.478,4.7-6.593,9.047-7.883,4.457-1.328,7.818.678,8.34,4.969a12.6,12.6,0,0,1,.041,3.774c-1.24,7.233-2.582,14.457-3.945,21.661-.891,4.711-1.875,9.412-2.818,14.065a3.33,3.33,0,0,0,.943.382c5.164.038,10.338.134,15.5,0,.594-.019,1.486-1.118,1.66-1.815,1.762-8.112,3.4-16.215,5.051-24.355C87.76,48.393,89.287,41.667,88.467,34.72Z" transform="translate(-25.403 -22.687)" fill="#2fcd94"/>
      </g>
    </g>
    <g id="Group_16" data-name="Group 16" transform="translate(330.489 82.565)">
      <g id="Group_15" data-name="Group 15">
        <path id="Path_8" data-name="Path 8" d="M61.43,58.9c6.189-.334,12.264-1.319,17.889-3.918C86.5,51.61,89.883,46.1,89.351,38.854c-.574-7.348-4.836-12.651-12.459-14.762-11.4-3.172-21.926-.946-30.892,6.172C35.119,38.9,31.031,50.339,32.568,63.372c1.1,9.211,6.506,15.813,16.373,18.183,10.584,2.551,20.994,1.213,31.035-2.618a2.773,2.773,0,0,0,1.486-2.016c-.2-3.421-.635-6.841-.984-10.233a3.383,3.383,0,0,0-.758.01c-.646.2-1.281.44-1.926.65a39.187,39.187,0,0,1-17.91,2.265c-6.383-.726-10.6-4.854-10.184-10.673C53.664,58.938,57.568,59.12,61.43,58.9Zm6.609-23.792c2.438.554,4.16,1.768,4.559,4.166.4,2.341-.861,4.347-3.361,5.561-3.627,1.787-13.094,2.847-17.756,1.94C52.445,39.351,60.867,33.484,68.039,35.108Z" transform="translate(-32.256 -22.68)" fill="#2fcd94"/>
      </g>
    </g>
    <g id="Group_18" data-name="Group 18" transform="translate(194.423 82.675)">
      <g id="Group_17" data-name="Group 17">
        <path id="Path_9" data-name="Path 9" d="M81.8,44.268a21.322,21.322,0,0,0-9.416-16.836c-6.322-4.376-13.514-5.274-21.219-4.481-25.738,2.666-36.25,28.044-30.779,44.3,3.34,9.9,12.408,15.383,28.33,15.364,10.963-.3,21.8-6.086,28.607-17.963A35.675,35.675,0,0,0,81.8,44.268ZM56.368,65.69a11.383,11.383,0,0,1-7.9,4.252,9.65,9.65,0,0,1-10.9-9.163c-.072-.86-.01-1.749-.01-2.589.195-6.44,1.875-12.469,6.045-17.715a12.553,12.553,0,0,1,7.3-4.816c6.383-1.376,11.609,2.093,12.182,8.533A28.227,28.227,0,0,1,56.368,65.69Z" transform="translate(-18.976 -22.692)" fill="#2fcd94"/>
      </g>
    </g>
  </g>
</svg>
