<svg width="12" height="12" viewBox="0 0 12 12" fill="none" xmlns="http://www.w3.org/2000/svg">
<path d="M10.1255 1.125V3H8.25052M6.00052 11.0625C5.13562 11.0624 4.28517 10.8408 3.53027 10.4187C2.77537 9.99655 2.1412 9.38808 1.68825 8.65128C1.2353 7.91448 0.978662 7.07392 0.942825 6.20977C0.906988 5.34561 1.09314 4.48669 1.48354 3.71491C1.87393 2.94314 2.45554 2.28425 3.1729 1.80109C3.89025 1.31793 4.71943 1.02661 5.58135 0.954922C6.44327 0.883233 7.30919 1.03356 8.09651 1.39157C8.88383 1.74958 9.5663 2.30333 10.0788 3M9.5 9.5C9 10.5 7.95763 10.8961 7.5 11" stroke="#30B1FA" stroke-miterlimit="10" stroke-linecap="round" stroke-linejoin="round"/>
<path d="M6 7.5C6.55228 7.5 7 7.05228 7 6.5C7 5.94772 6.55228 5.5 6 5.5C5.44772 5.5 5 5.94772 5 6.5C5 7.05228 5.44772 7.5 6 7.5Z" stroke="#30B1FA" stroke-miterlimit="10" stroke-linecap="round" stroke-linejoin="round"/>
<path d="M7 7.5L8.25 8.375M6 3V5.5" stroke="#30B1FA" stroke-miterlimit="10" stroke-linecap="round" stroke-linejoin="round"/>
</svg>
