<svg xmlns="http://www.w3.org/2000/svg" width="576" height="384" viewBox="0 0 576 384">
  <path id="press" d="M552,64H88A24,24,0,0,0,64,88v8H24A24,24,0,0,0,0,120V392a56,56,0,0,0,56,56H528a48,48,0,0,0,48-48V88A24,24,0,0,0,552,64ZM56,400a8,8,0,0,1-8-8V144H64V392A8,8,0,0,1,56,400Zm236-16H140a12,12,0,0,1-12-12v-8a12,12,0,0,1,12-12H292a12,12,0,0,1,12,12v8A12,12,0,0,1,292,384Zm208,0H348a12,12,0,0,1-12-12v-8a12,12,0,0,1,12-12H500a12,12,0,0,1,12,12v8A12,12,0,0,1,500,384ZM292,288H140a12,12,0,0,1-12-12v-8a12,12,0,0,1,12-12H292a12,12,0,0,1,12,12v8A12,12,0,0,1,292,288Zm208,0H348a12,12,0,0,1-12-12v-8a12,12,0,0,1,12-12H500a12,12,0,0,1,12,12v8A12,12,0,0,1,500,288Zm0-96H140a12,12,0,0,1-12-12V140a12,12,0,0,1,12-12H500a12,12,0,0,1,12,12v40A12,12,0,0,1,500,192Z" transform="translate(0 -64)" fill="#2fcd94"/>
</svg>
