<svg xmlns="http://www.w3.org/2000/svg" width="433.398" height="448" viewBox="0 0 433.398 448">
  <path id="quora" d="M440.5,386.7H411.2c-1.5,13.5-10.5,30.8-33,30.8-20.5,0-35.3-14.2-49.5-35.8,44.2-34.2,74.7-87.5,74.7-153C403.5,111.2,306.8,32,205,32,105.3,32,7.3,111.7,7.3,228.7c0,134.1,131.3,221.6,249,189C276,451.3,302,480,351.5,480,433.3,480,442.3,404.7,440.5,386.7ZM297,329.2C277.5,300,253.3,277,205.5,277c-30.5,0-54.3,10-69,22.8l12.2,24.3c6.2-3,13-4,19.8-4,35.5,0,53.7,30.8,69.2,61.3-10,3-20.7,4.2-32.7,4.2-75,0-107.5-53-107.5-156.7C97.5,124.5,130,71,205,71c76.2,0,108.7,53.5,108.7,157.7C313.8,270.5,308.3,304.3,297,329.2Z" transform="translate(-7.3 -32)" fill="#2fcd94"/>
</svg>
