<svg width="28" height="28" viewBox="0 0 28 28" fill="none" xmlns="http://www.w3.org/2000/svg">
<path fill-rule="evenodd" clip-rule="evenodd" d="M14 28C21.732 28 28 21.732 28 14C28 6.26801 21.732 0 14 0C6.26801 0 0 6.26801 0 14C0 21.732 6.26801 28 14 28ZM11.4433 8.96204C12.5175 8.42658 13.7383 8.21665 14.9429 8.3628C16.1474 8.50894 17.2727 9.0034 18.171 9.77508C19.0688 10.5464 19.6967 11.5572 19.9785 12.6706C20.2601 13.7836 20.1842 14.9525 19.7594 16.0246C19.3345 17.0972 18.5784 18.0267 17.5849 18.6856C16.8666 19.1619 16.0497 19.4795 15.1935 19.619C15.1691 19.0885 14.7312 18.6658 14.1946 18.6658C13.6423 18.6658 13.1946 19.1135 13.1946 19.6658V20.66C13.1941 20.6732 13.1938 20.6865 13.1938 20.6999C13.1938 20.7132 13.1941 20.7265 13.1946 20.7398V21.7205C13.1946 22.2728 13.6423 22.7205 14.1946 22.7205C14.7469 22.7205 15.1946 22.2728 15.1946 21.7205V21.6388C16.4428 21.4856 17.6421 21.0474 18.6902 20.3524C20.0164 19.473 21.04 18.2222 21.6188 16.7613C22.1978 15.2998 22.3024 13.7014 21.9174 12.1799C21.5325 10.6588 20.6781 9.29218 19.4742 8.25799C18.2708 7.2242 16.7742 6.57032 15.1838 6.37736C13.5935 6.18441 11.9784 6.4606 10.5511 7.17211C9.12341 7.8838 7.94752 8.99947 7.18471 10.3771C6.90426 10.8836 6.68477 11.4163 6.52847 11.9648L5.92008 11.1059C5.60085 10.6552 4.97672 10.5486 4.52604 10.8678C4.07535 11.1871 3.96879 11.8112 4.28801 12.2619L6.45204 15.317C6.6356 15.5953 6.95263 15.772 7.301 15.7669C7.41563 15.7654 7.52857 15.7442 7.63501 15.7048C7.66592 15.6933 7.69604 15.6804 7.72532 15.6662C7.80642 15.6267 7.88257 15.5761 7.95136 15.5151L10.8474 12.9467C11.2606 12.5803 11.2985 11.9483 10.9321 11.5351C10.5656 11.1219 9.93359 11.084 9.52039 11.4504L8.49909 12.3561C8.60937 12.0087 8.75475 11.6703 8.93439 11.3459C9.49656 10.3306 10.3696 9.49732 11.4433 8.96204Z" fill="white"/>
</svg>
