<svg width="28" height="28" viewBox="0 0 28 28" fill="none" xmlns="http://www.w3.org/2000/svg">
<path fill-rule="evenodd" clip-rule="evenodd" d="M28 14C28 21.7319 21.7319 28 14 28C6.26807 28 0 21.7319 0 14C0 6.26807 6.26807 0 14 0C21.7319 0 28 6.26807 28 14ZM8.4917 11.4917C9.20654 10.7766 10.1763 10.375 11.1875 10.375H16.8799L16.3218 9.85986C16.1357 9.68823 16.0298 9.4624 16.0054 9.229C15.9766 8.95312 16.062 8.6665 16.2651 8.44678C16.6396 8.04102 17.2725 8.01562 17.6782 8.39014L20.1157 10.6401C20.1255 10.6492 20.1353 10.6584 20.1445 10.668C20.3257 10.8489 20.4375 11.0989 20.4375 11.375C20.4375 11.5215 20.4058 11.6606 20.3496 11.7859C20.2979 11.9006 20.2251 12.0037 20.1362 12.0906C20.1255 12.1013 20.1143 12.1116 20.103 12.1218L17.6782 14.3599C17.2725 14.7344 16.6396 14.709 16.2651 14.3032C15.8906 13.8975 15.916 13.2649 16.3218 12.8901L16.8799 12.375H11.1875C10.707 12.375 10.2456 12.5659 9.90576 12.9058C9.56592 13.2458 9.375 13.7068 9.375 14.1875C9.375 14.458 9.43555 14.7224 9.54883 14.9624C9.63721 15.1489 9.75732 15.3206 9.90576 15.4692C10.2456 15.8091 10.707 16 11.1875 16H19.625C19.9531 16 20.2446 16.1582 20.4268 16.4026C20.5513 16.5693 20.625 16.7761 20.625 17C20.625 17.5522 20.1772 18 19.625 18H11.1875C10.1763 18 9.20654 17.5984 8.4917 16.8833C7.77686 16.1685 7.375 15.1987 7.375 14.1875C7.375 13.1763 7.77686 12.2065 8.4917 11.4917Z" fill="white"/>
</svg>
