<svg xmlns="http://www.w3.org/2000/svg" xmlns:xlink="http://www.w3.org/1999/xlink" width="530.99" height="531" viewBox="0 0 530.99 531">
  <defs>
    <filter id="seo" x="0" y="0" width="530.99" height="531" filterUnits="userSpaceOnUse">
      <feOffset dy="3" input="SourceAlpha"/>
      <feGaussianBlur stdDeviation="3" result="blur"/>
      <feFlood flood-color="#2fcd94" flood-opacity="0.161"/>
      <feComposite operator="in" in2="blur"/>
      <feComposite in="SourceGraphic"/>
    </filter>
  </defs>
  <g transform="matrix(1, 0, 0, 1, 0, 0)" filter="url(#seo)">
    <path id="seo-2" data-name="seo" d="M505.12,19.094c-1.189-5.531-6.658-11-12.207-12.187C460.716,0,435.507,0,410.407,0,307.175,0,245.269,55.2,199.052,128H94.838c-16.348.016-35.557,11.875-42.887,26.484L2.516,253.3A28.4,28.4,0,0,0,0,264a24.009,24.009,0,0,0,24.006,24h103.81l-22.475,22.469c-11.365,11.361-13,32.258,0,45.25l50.9,50.906c11.156,11.188,32.156,13.156,45.277,0L224,384.156V488A24.009,24.009,0,0,0,248,512a28.559,28.559,0,0,0,10.707-2.516l98.728-49.391c14.629-7.3,26.508-26.5,26.508-42.859V312.8c72.6-46.312,128.035-108.406,128.035-211.094C512.075,76.5,512.075,51.3,505.12,19.094ZM384.04,168a40,40,0,1,1,40.01-40,40,40,0,0,1-40.01,40Z" transform="translate(9.5 6.5)" fill="#2fcd94" stroke="#2fcd94" stroke-width="1"/>
  </g>
</svg>
