<svg xmlns="http://www.w3.org/2000/svg" width="32" height="24" viewBox="0 0 32 24">
  <g id="services_icon" transform="translate(0 -4)">
    <path id="Path_1" data-name="Path 1" d="M3,9A2,2,0,1,0,1,7,2,2,0,0,0,3,9Z" fill="none" stroke="#2fcd94" stroke-linecap="round" stroke-linejoin="round" stroke-miterlimit="10" stroke-width="2"/>
    <path id="Path_2" data-name="Path 2" d="M11,7H31" fill="none" stroke="#2fcd94" stroke-linecap="round" stroke-linejoin="round" stroke-miterlimit="10" stroke-width="2"/>
    <path id="Path_3" data-name="Path 3" d="M3,18a2,2,0,1,0-2-2A2,2,0,0,0,3,18Z" fill="none" stroke="#2fcd94" stroke-linecap="round" stroke-linejoin="round" stroke-miterlimit="10" stroke-width="2"/>
    <path id="Path_4" data-name="Path 4" d="M11,16H31" fill="none" stroke="#2fcd94" stroke-linecap="round" stroke-linejoin="round" stroke-miterlimit="10" stroke-width="2"/>
    <path id="Path_5" data-name="Path 5" d="M3,27a2,2,0,1,0-2-2A2,2,0,0,0,3,27Z" fill="none" stroke="#2fcd94" stroke-linecap="round" stroke-linejoin="round" stroke-miterlimit="10" stroke-width="2"/>
    <path id="Path_6" data-name="Path 6" d="M11,25H31" fill="none" stroke="#2fcd94" stroke-linecap="round" stroke-linejoin="round" stroke-miterlimit="10" stroke-width="2"/>
  </g>
</svg>
