<svg xmlns="http://www.w3.org/2000/svg" width="496.002" height="530.549" viewBox="0 0 496.002 530.549">
  <g id="shazam" transform="translate(-41.41 485.904)">
    <path id="Path_5" data-name="Path 5" d="M209.659-483.7c-9.354,3.349-14.436,7.16-31.989,23.674C152.725-436.467,81.818-362.9,73.85-352.164c-14.32,19.055-24.483,42.383-29.679,68.482-3.7,18.708-3.7,50.351.115,67.9C59.991-142.449,114.5-87.247,184.945-72.927c13.858,2.772,51.737,2.887,66.75.115,25.522-4.735,49.543-14.9,68.944-28.871,28.178-20.441,68.251-62.246,73.794-77.028,3.7-9.932,2.887-23.674-2.079-33.721-9.008-18.247-30.6-28.756-48.272-23.559-10.509,3-16.63,7.737-43.884,34.068-13.974,13.4-27.6,25.984-30.372,27.832-24.136,16.976-59.359,20.094-86.382,7.968-24.252-10.856-43.538-34.068-50.929-61.207-2.887-10.394-2.887-34.645,0-44.808,2.541-9.354,8.892-22.057,15.013-30.257,2.541-3.465,19.286-21.249,37.07-39.611,62.477-64.325,73.91-76.566,76.913-82.34,2.541-4.966,2.887-7.16,2.887-17.207s-.346-12.357-3-17.9a43.153,43.153,0,0,0-16.63-19.055C232.756-486.13,221.207-487.862,209.659-483.7Z" fill="#2fcd94"/>
    <path id="Path_6" data-name="Path 6" d="M314.924-385.36c-1.27.346-6.467,1.386-11.548,2.31-26.677,5.081-52.083,17.785-78.529,39.149-12.01,9.816-36.609,34.645-49.312,49.774C165.141-281.539,162.6-275.3,162.6-262.369c0,7.275.577,9.932,3.58,16.283,4.85,10.278,11.548,17.323,21.134,22.173,14.2,7.045,28.063,6.352,40.881-2.194,3.349-2.194,16.63-14.2,29.564-26.792,27.254-26.33,31.3-29.8,41.574-35.338,12.01-6.583,23.559-9.239,39.842-9.239,16.861.115,27.6,2.31,40.535,8.546,18.016,8.546,30.141,21.249,40.3,42.036,7.853,16.168,10.163,25.522,10.278,41,0,24.6-8.892,42.845-34.53,70.445-5.659,6.005-29.333,30.488-52.661,54.393-25.4,25.981-43.417,45.383-44.8,48.27-5.659,10.971-5.312,24.714,1.039,37.763,4.273,8.777,11.664,15.706,21.711,20.441,6.814,3.234,9.008,3.7,17.554,3.7,17.554,0,15.359,1.732,80.839-63.978C450.849-66.387,479.6-96.067,483.184-100.8a168.412,168.412,0,0,0,30.372-63.747c14.782-62.362-3-124.608-48.5-170.108C440-359.833,413.2-374.73,378.443-382.814c-8.546-1.963-14.782-2.541-35.8-2.772C328.666-385.706,316.194-385.706,314.924-385.36Z" transform="translate(18.765 15.522)" fill="#2fcd94"/>
  </g>
</svg>
