<svg xmlns="http://www.w3.org/2000/svg" xmlns:xlink="http://www.w3.org/1999/xlink" width="658.905" height="296.9" viewBox="0 0 658.905 296.9">
  <defs>
    <filter id="soundcloud" x="0" y="0" width="658.905" height="296.9" filterUnits="userSpaceOnUse">
      <feOffset dy="3" input="SourceAlpha"/>
      <feGaussianBlur stdDeviation="3" result="blur"/>
      <feFlood flood-color="#2fcd94" flood-opacity="0.161"/>
      <feComposite operator="in" in2="blur"/>
      <feComposite in="SourceGraphic"/>
    </filter>
  </defs>
  <g transform="matrix(1, 0, 0, 1, 0, 0)" filter="url(#soundcloud)">
    <path id="soundcloud-2" data-name="soundcloud" d="M111.4,256.3l5.8,65-5.8,68.3A4.724,4.724,0,0,1,107,394a4.336,4.336,0,0,1-4.2-4.4l-5.6-68.3,5.6-65a4.292,4.292,0,0,1,4.2-4.2A4.791,4.791,0,0,1,111.4,256.3Zm21.4-45.6c-2.8,0-4.7,2.2-5,5l-5,105.6,5,68.3c.3,2.8,2.2,5,5,5a4.9,4.9,0,0,0,4.7-5l5.8-68.3-5.8-105.6A4.9,4.9,0,0,0,132.8,210.7Zm25.5-24.1a5.528,5.528,0,0,0-5.6,5.3l-4.4,130,4.4,67.8a5.528,5.528,0,0,0,5.6,5.3,5.27,5.27,0,0,0,5.3-5.3l5.3-67.8-5.3-130a5.27,5.27,0,0,0-5.3-5.3ZM7.2,283.2c-1.4,0-2.2,1.1-2.5,2.5L0,321.3l4.7,35c.3,1.4,1.1,2.5,2.5,2.5s2.2-1.1,2.5-2.5l5.6-35L9.7,285.7c-.3-1.4-1.1-2.5-2.5-2.5Zm23.6-21.9a2.476,2.476,0,0,0-2.5,2.5l-6.4,57.5,6.4,56.1a2.559,2.559,0,0,0,2.5,2.8,2.975,2.975,0,0,0,2.8-2.5l7.2-56.4-7.2-57.5A2.975,2.975,0,0,0,30.8,261.3Zm25.3-11.4a3.466,3.466,0,0,0-3.3,3.3L47,321.3l5.8,65.8a3.605,3.605,0,0,0,3.3,3.1,3.116,3.116,0,0,0,3.1-3.1l6.9-65.8-6.9-68.1a3.164,3.164,0,0,0-3.1-3.3Zm25.3-2.2a3.522,3.522,0,0,0-3.6,3.6l-5.8,70,5.8,67.8a3.522,3.522,0,0,0,3.6,3.6,3.977,3.977,0,0,0,3.9-3.6l6.4-67.8-6.4-70a3.977,3.977,0,0,0-3.9-3.6ZM322.8,136.8a7.812,7.812,0,0,0-4.2-1.4,9.2,9.2,0,0,0-5.6,1.9,10.25,10.25,0,0,0-3.3,6.7v.8l-3.3,176.7,1.7,32.5,1.7,31.7a9.138,9.138,0,0,0,8.9,8.6,8.664,8.664,0,0,0,8.6-8.6l3.9-64.2L327.3,144a9.63,9.63,0,0,0-4.5-7.2Zm-26.7,15.3a8.789,8.789,0,0,0-4.4-1.4,8.488,8.488,0,0,0-4.4,1.4,7.9,7.9,0,0,0-3.6,6.7l-.3,1.7-2.8,160.8s0,.3,3.1,65.6v.3a7.539,7.539,0,0,0,1.7,4.7,8.573,8.573,0,0,0,6.4,3.1,8.111,8.111,0,0,0,5.6-2.5,6.891,6.891,0,0,0,2.5-5.6l.3-6.7,3.1-58.6L300,158.8a8.973,8.973,0,0,0-3.9-6.7ZM184.7,174.6a6.07,6.07,0,0,0-5.8,6.1l-4.4,140.6,4.4,67.2a5.952,5.952,0,0,0,11.9,0l5-67.2-5-140.6a6.259,6.259,0,0,0-6.1-6.1Zm376.7,62.8a80.314,80.314,0,0,0-30.6,6.1c-6.4-70.8-65.8-126.4-138.3-126.4a136.366,136.366,0,0,0-50.3,9.4c-6.1,2.2-7.8,4.4-7.8,9.2V385.4c0,5,3.9,8.6,8.6,9.2H561.3c43.3,0,78.6-35,78.6-78.3a78.656,78.656,0,0,0-78.5-78.9ZM264.7,177.1c-4.2,0-7.5,3.3-7.8,7.8l-3.3,136.7,3.3,65.6a7.885,7.885,0,0,0,7.8,7.5,7.427,7.427,0,0,0,7.5-7.5l3.9-65.6-3.9-136.7c-.3-4.5-3.3-7.8-7.5-7.8Zm-53.6-7.8a6.783,6.783,0,0,0-6.4,6.7l-3.9,145.3,3.9,66.9a6.552,6.552,0,0,0,13.1,0l4.4-66.9L217.8,176C217.5,172.4,214.7,169.3,211.1,169.3Zm26.7,3.4a6.85,6.85,0,0,0-6.9,6.9L227,321.3l3.9,66.4c.3,3.9,3.1,6.9,6.9,6.9a6.914,6.914,0,0,0,6.9-6.9l4.2-66.4-4.2-141.7a6.789,6.789,0,0,0-6.9-6.9Z" transform="translate(9.5 -110.6)" fill="#2fcd94" stroke="#2fcd94" stroke-width="1"/>
  </g>
</svg>
