<svg width="28" height="28" viewBox="0 0 28 28" fill="none" xmlns="http://www.w3.org/2000/svg">
<path d="M14 0.875C11.4041 0.875 8.86654 1.64477 6.70815 3.08696C4.54975 4.52915 2.86749 6.579 1.87409 8.97728C0.880687 11.3756 0.620768 14.0146 1.1272 16.5606C1.63363 19.1066 2.88367 21.4452 4.71923 23.2808C6.55479 25.1163 8.89345 26.3664 11.4394 26.8728C13.9854 27.3792 16.6244 27.1193 19.0227 26.1259C21.421 25.1325 23.4709 23.4503 24.913 21.2919C26.3552 19.1335 27.125 16.5959 27.125 14C27.125 10.519 25.7422 7.18064 23.2808 4.71922C20.8194 2.25781 17.481 0.875 14 0.875ZM14 17.9375C13.5435 17.9408 13.098 17.7983 12.7281 17.5307C12.3583 17.2632 12.0835 16.8846 11.9438 16.45V16.3625L10.0625 8.8375C10.0427 8.74444 10.0538 8.64747 10.0941 8.56128C10.1344 8.47508 10.2017 8.40437 10.2857 8.35986C10.3698 8.31534 10.4661 8.29945 10.5601 8.31459C10.654 8.32973 10.7404 8.37507 10.8063 8.44375L15.7063 14.3938V14.4812C15.9998 14.8409 16.1687 15.2861 16.1875 15.75C16.1875 16.0373 16.1309 16.3217 16.021 16.5871C15.9111 16.8525 15.7499 17.0937 15.5468 17.2968C15.3437 17.4999 15.1025 17.6611 14.8371 17.771C14.5717 17.8809 14.2873 17.9375 14 17.9375ZM23.625 14.875C23.3929 14.875 23.1704 14.7828 23.0063 14.6187C22.8422 14.4546 22.75 14.2321 22.75 14C22.75 11.6794 21.8281 9.45376 20.1872 7.81282C18.5462 6.17187 16.3207 5.25 14 5.25C11.6794 5.25 9.45377 6.17187 7.81282 7.81282C6.17188 9.45376 5.25001 11.6794 5.25001 14C5.25001 14.2321 5.15782 14.4546 4.99372 14.6187C4.82963 14.7828 4.60707 14.875 4.37501 14.875C4.14294 14.875 3.92038 14.7828 3.75629 14.6187C3.59219 14.4546 3.50001 14.2321 3.50001 14C3.50001 11.2152 4.60625 8.54451 6.57539 6.57538C8.54452 4.60625 11.2152 3.5 14 3.5C16.7848 3.5 19.4555 4.60625 21.4246 6.57538C23.3938 8.54451 24.5 11.2152 24.5 14C24.5 14.2321 24.4078 14.4546 24.2437 14.6187C24.0796 14.7828 23.8571 14.875 23.625 14.875Z" fill="white"/>
</svg>
