<svg width="60" height="26" viewBox="0 0 60 26" fill="none" xmlns="http://www.w3.org/2000/svg">
<path fill-rule="evenodd" clip-rule="evenodd" d="M59.4682 13.3477C59.4682 9.20569 57.4382 5.93738 53.5583 5.93738C49.6621 5.93738 47.3047 9.20569 47.3047 13.3154C47.3047 18.1855 50.0877 20.6448 54.0822 20.6448C56.0303 20.6448 57.5037 20.2079 58.6169 19.5931V16.3572C57.5037 16.9073 56.2268 17.247 54.6061 17.247C53.0181 17.247 51.6102 16.6969 51.4301 14.7877H59.4355C59.4355 14.5774 59.4682 13.736 59.4682 13.3477ZM51.381 11.8106C51.381 9.98232 52.5106 9.22187 53.542 9.22187C54.5406 9.22187 55.6047 9.98232 55.6047 11.8106H51.381Z" fill="#635BFF"/>
<path fill-rule="evenodd" clip-rule="evenodd" d="M40.985 5.93738C39.3807 5.93738 38.3493 6.68165 37.7763 7.1994L37.5635 6.19625H33.9619V25.0619L38.0546 24.2043L38.071 19.6255C38.6603 20.0461 39.528 20.6448 40.9686 20.6448C43.899 20.6448 46.5674 18.3149 46.5674 13.1859C46.5511 8.49378 43.8499 5.93738 40.985 5.93738ZM40.0027 17.0852C39.0369 17.0852 38.4639 16.7455 38.071 16.3248L38.0546 10.3221C38.4803 9.85288 39.0696 9.52929 40.0027 9.52929C41.4925 9.52929 42.5238 11.1796 42.5238 13.2992C42.5238 15.4673 41.5089 17.0852 40.0027 17.0852Z" fill="#635BFF"/>
<path fill-rule="evenodd" clip-rule="evenodd" d="M28.3311 4.98291L32.4401 4.1092V0.824707L28.3311 1.68224V4.98291Z" fill="#635BFF"/>
<path d="M32.4401 6.21252H28.3311V20.3698H32.4401V6.21252Z" fill="#635BFF"/>
<path fill-rule="evenodd" clip-rule="evenodd" d="M23.9269 7.40983L23.665 6.21253H20.1289V20.3698H24.2216V10.7752C25.1875 9.52938 26.8246 9.7559 27.3321 9.93388V6.21253C26.8082 6.01837 24.8928 5.66242 23.9269 7.40983Z" fill="#635BFF"/>
<path fill-rule="evenodd" clip-rule="evenodd" d="M15.7413 2.70154L11.7468 3.54289L11.7305 16.5029C11.7305 18.8975 13.5476 20.6611 15.9705 20.6611C17.3129 20.6611 18.2952 20.4184 18.8354 20.1272V16.8427C18.3115 17.053 15.725 17.7973 15.725 15.4027V9.65884H18.8354V6.21255H15.725L15.7413 2.70154Z" fill="#635BFF"/>
<path fill-rule="evenodd" clip-rule="evenodd" d="M4.67502 10.3221C4.67502 9.69109 5.19888 9.44839 6.06654 9.44839C7.31072 9.44839 8.88232 9.82053 10.1265 10.4839V6.68165C8.76772 6.14771 7.42531 5.93738 6.06654 5.93738C2.74326 5.93738 0.533203 7.65244 0.533203 10.5163C0.533203 14.9819 6.75411 14.27 6.75411 16.1954C6.75411 16.9396 6.09928 17.1823 5.18251 17.1823C3.82374 17.1823 2.08843 16.6322 0.713282 15.8879V19.7387C2.23577 20.3859 3.77462 20.661 5.18251 20.661C8.58764 20.661 10.9287 18.9945 10.9287 16.0983C10.9123 11.2767 4.67502 12.1342 4.67502 10.3221Z" fill="#635BFF"/>
</svg>
