<svg width="20" height="20" viewBox="0 0 20 20" fill="none" xmlns="http://www.w3.org/2000/svg">
<path d="M10 19.375C15.1777 19.375 19.375 15.1777 19.375 10C19.375 4.82233 15.1777 0.625 10 0.625C4.82233 0.625 0.625 4.82233 0.625 10C0.625 15.1777 4.82233 19.375 10 19.375Z" stroke="#2FCD94" stroke-miterlimit="10" stroke-linecap="round" stroke-linejoin="round"/>
<path d="M8.75 8.125H10V15M8.75 15.0025H11.25" stroke="#2FCD94" stroke-miterlimit="10" stroke-linecap="round" stroke-linejoin="round"/>
<path d="M9.6875 6.5625C10.0327 6.5625 10.3125 6.28268 10.3125 5.9375C10.3125 5.59232 10.0327 5.3125 9.6875 5.3125C9.34232 5.3125 9.0625 5.59232 9.0625 5.9375C9.0625 6.28268 9.34232 6.5625 9.6875 6.5625Z" stroke="#2FCD94" stroke-miterlimit="10" stroke-linecap="round" stroke-linejoin="round"/>
</svg>
