<svg xmlns="http://www.w3.org/2000/svg" xmlns:xlink="http://www.w3.org/1999/xlink" width="323.042" height="531" viewBox="0 0 323.042 531">
  <defs>
    <filter id="tumblr" x="0" y="0" width="323.042" height="531" filterUnits="userSpaceOnUse">
      <feOffset dy="3" input="SourceAlpha"/>
      <feGaussianBlur stdDeviation="3" result="blur"/>
      <feFlood flood-color="#2fcd94" flood-opacity="0.161"/>
      <feComposite operator="in" in2="blur"/>
      <feComposite in="SourceGraphic"/>
    </filter>
  </defs>
  <g transform="matrix(1, 0, 0, 1, 0, 0)" filter="url(#tumblr)">
    <path id="tumblr-2" data-name="tumblr" d="M309.8,480.3c-13.6,14.5-50,31.7-97.4,31.7-120.8,0-147-88.8-147-140.6v-144H17.9a10.029,10.029,0,0,1-10-10v-68a16.926,16.926,0,0,1,11.3-16c62-21.8,81.5-76,84.3-117.1C104.3,5.3,110,0,119.6,0h70.9a10.029,10.029,0,0,1,10,10V125.2h83a9.944,9.944,0,0,1,10,9.9v81.7a10.029,10.029,0,0,1-10,10H200.1V360c0,34.2,23.7,53.6,68,35.8,4.8-1.9,9-3.2,12.7-2.2,3.5.9,5.8,3.4,7.4,7.9l22,64.3c1.8,5,3.3,10.6-.4,14.5Z" transform="translate(1.6 6.5)" fill="#2fcd94" stroke="#2fcd94" stroke-width="1"/>
  </g>
</svg>
