<svg xmlns="http://www.w3.org/2000/svg" xmlns:xlink="http://www.w3.org/1999/xlink" width="531.663" height="434.837" viewBox="0 0 531.663 434.837">
  <defs>
    <filter id="twitter" x="0" y="0" width="531.663" height="434.837" filterUnits="userSpaceOnUse">
      <feOffset dy="3" input="SourceAlpha"/>
      <feGaussianBlur stdDeviation="3" result="blur"/>
      <feFlood flood-color="#2fcd94" flood-opacity="0.161"/>
      <feComposite operator="in" in2="blur"/>
      <feComposite in="SourceGraphic"/>
    </filter>
  </defs>
  <g transform="matrix(1, 0, 0, 1, 0, 0)" filter="url(#twitter)">
    <path id="twitter-2" data-name="twitter" d="M459.37,151.716c.325,4.548.325,9.1.325,13.645,0,138.72-105.583,298.558-298.558,298.558A296.534,296.534,0,0,1,0,416.813a217.08,217.08,0,0,0,25.34,1.3A210.151,210.151,0,0,0,155.614,373.28,105.119,105.119,0,0,1,57.5,300.508a132.331,132.331,0,0,0,19.818,1.624,110.982,110.982,0,0,0,27.614-3.573A104.948,104.948,0,0,1,20.791,195.574v-1.3a105.679,105.679,0,0,0,47.431,13.319A105.09,105.09,0,0,1,35.735,67.249,298.271,298.271,0,0,0,252.1,177.056a118.458,118.458,0,0,1-2.6-24.04,105.034,105.034,0,0,1,181.6-71.8,206.6,206.6,0,0,0,66.6-25.34,104.651,104.651,0,0,1-46.132,57.827A210.362,210.362,0,0,0,512,97.463a225.567,225.567,0,0,1-52.628,54.253Z" transform="translate(9.27 -41.58)" fill="#2fcd94" stroke="#2fcd94" stroke-width="1"/>
  </g>
</svg>
