<svg xmlns="http://www.w3.org/2000/svg" xmlns:xlink="http://www.w3.org/1999/xlink" width="515" height="515" viewBox="0 0 515 515">
  <defs>
    <filter id="verification" x="0" y="0" width="515" height="515" filterUnits="userSpaceOnUse">
      <feOffset dy="3" input="SourceAlpha"/>
      <feGaussianBlur stdDeviation="3" result="blur"/>
      <feFlood flood-color="#2fcd94" flood-opacity="0.161"/>
      <feComposite operator="in" in2="blur"/>
      <feComposite in="SourceGraphic"/>
    </filter>
  </defs>
  <g transform="matrix(1, 0, 0, 1, 0, 0)" filter="url(#verification)">
    <path id="verification-2" data-name="verification" d="M504,256c0,136.967-111.033,248-248,248S8,392.967,8,256,119.033,8,256,8,504,119.033,504,256ZM227.314,387.314l184-184a16,16,0,0,0,0-22.627L388.687,158.06a16,16,0,0,0-22.628,0L216,308.118l-70.059-70.059a16,16,0,0,0-22.628,0l-22.627,22.627a16,16,0,0,0,0,22.627l104,104a16,16,0,0,0,22.628,0Z" transform="translate(1.5 -1.5)" fill="#2fcd94" stroke="#2fcd94" stroke-width="1"/>
  </g>
</svg>
