<svg xmlns="http://www.w3.org/2000/svg" xmlns:xlink="http://www.w3.org/1999/xlink" width="557.698" height="339" viewBox="0 0 557.698 339">
  <defs>
    <filter id="vk" x="0" y="0" width="557.698" height="339" filterUnits="userSpaceOnUse">
      <feOffset dy="3" input="SourceAlpha"/>
      <feGaussianBlur stdDeviation="3" result="blur"/>
      <feFlood flood-color="#2fcd94" flood-opacity="0.161"/>
      <feComposite operator="in" in2="blur"/>
      <feComposite in="SourceGraphic"/>
    </filter>
  </defs>
  <g transform="matrix(1, 0, 0, 1, 0, 0)" filter="url(#vk)">
    <path id="vk-2" data-name="vk" d="M545,117.7c3.7-12.5,0-21.7-17.8-21.7H468.3c-15,0-21.9,7.9-25.6,16.7,0,0-30,73.1-72.4,120.5-13.7,13.7-20,18.1-27.5,18.1-3.7,0-9.4-4.4-9.4-16.9V117.7c0-15-4.2-21.7-16.6-21.7H224.2c-9.4,0-15,7-15,13.5,0,14.2,21.2,17.5,23.4,57.5v86.8c0,19-3.4,22.5-10.9,22.5-20,0-68.6-73.4-97.4-157.4C118.5,102.6,112.8,96,97.7,96H38.8c-16.8,0-20.2,7.9-20.2,16.7,0,15.6,20,93.1,93.1,195.5C160.4,378.1,229,416,291.4,416c37.5,0,42.1-8.4,42.1-22.9,0-66.8-3.4-73.1,15.4-73.1,8.7,0,23.7,4.4,58.7,38.1,40,40,46.6,57.9,69,57.9h58.9c16.8,0,25.3-8.4,20.4-25-11.2-34.9-86.9-106.7-90.3-111.5-8.7-11.2-6.2-16.2,0-26.2.1-.1,72-101.3,79.4-135.6Z" transform="translate(-9.1 -89.5)" fill="#2fcd94" stroke="#2fcd94" stroke-width="1"/>
  </g>
</svg>
