<svg xmlns="http://www.w3.org/2000/svg" xmlns:xlink="http://www.w3.org/1999/xlink" width="515" height="515.003" viewBox="0 0 515 515.003">
  <defs>
    <filter id="coub" x="0" y="0" width="515" height="515.003" filterUnits="userSpaceOnUse">
      <feOffset dy="3" input="SourceAlpha"/>
      <feGaussianBlur stdDeviation="3" result="blur"/>
      <feFlood flood-color="#2fcd94" flood-opacity="0.161"/>
      <feComposite operator="in" in2="blur"/>
      <feComposite in="SourceGraphic"/>
    </filter>
  </defs>
  <g transform="matrix(1, 0, 0, 1, 0, 0)" filter="url(#coub)">
    <path id="coub-2" data-name="coub" d="M334.467,21.954c-136.966,0-248,111.036-248,248A247.856,247.856,0,0,0,206.152,482.215c5.82-11.2,16.3-31.512,22.628-44.826,9.789-21.02,14.032-33.656,7.17-49.974-2.746-6.528-5.982-12.849-8.894-19.306-8.717-19.331-9.37-39.7-6.538-60.163.713-5.127,4.237-10.583,7.974-14.421A176.957,176.957,0,0,1,251.185,274c6.745-4.895,9.526-10.993,9.557-18.9.061-15.159-.364-30.344.339-45.473.824-17.839,2.518-35.643,4.055-53.442.915-10.583,2.321-21.126,3.388-31.694.713-7.064,2.715-13.607,7.4-19.058,4.652-5.416,10.255-9.041,17.794-7.1,6.467,1.664,12.06,8.611,12.07,16.494.025,12.389-.627,24.8-1.5,37.165-1.719,24.464-2.918,48.887,1.168,73.244.561,3.332.6,6.756,1.315,10.047.951,4.394,3.853,5.279,7.443,2.452a47.2,47.2,0,0,0,3.449-3.378c7.908-7.7,18.962-9.931,27.533-5.567,8.515,4.333,13.349,15.266,11.534,26.112-.081.475-.43,1.006-.308,1.4.627,1.982.865,4.95,2.2,5.608,1.355.662,4.192-.511,5.749-1.7,7.1-5.461,10.492-15.812,27.877-7.615a12.117,12.117,0,0,1,6.3,6.5c2.321,6.164,2.018,13.319,2.6,20.059.187,2.2-.89,4.526-.617,6.7.233,1.825,1.588,3.509,2.442,5.259,1.466-.764,3.17-1.254,4.354-2.321,23.215-20.894,40.806-46.378,58.539-71.757,1.568-2.245,3.084-4.546,4.834-6.644a49.237,49.237,0,0,1,5.972-6.3c6.508-5.466,13.9-6.771,19.134-3.641,5.1,3.054,7.974,10.674,6.128,18.593a47.964,47.964,0,0,1-5.451,14.315c-19.624,31.639-39.749,62.969-59.318,94.643-13.638,22.072-26.461,44.649-40.043,66.756-5.117,8.323-11.337,16-17.364,23.715a107.99,107.99,0,0,1-7.726,8.788c-15.367,15.807-31.583,56.168-31.583,56.168L327.63,516.9l-.369.87c2.4.071,4.788.187,7.206.187,136.971,0,248-111.036,248-248S471.438,21.954,334.467,21.954Z" transform="translate(-76.97 -15.45)" fill="#2fcd94" stroke="#2fcd94" stroke-width="1"/>
  </g>
</svg>
