<svg xmlns="http://www.w3.org/2000/svg" xmlns:xlink="http://www.w3.org/1999/xlink" width="531" height="435" viewBox="0 0 531 435">
  <defs>
    <filter id="list" x="0" y="0" width="531" height="435" filterUnits="userSpaceOnUse">
      <feOffset dy="3" input="SourceAlpha"/>
      <feGaussianBlur stdDeviation="3" result="blur"/>
      <feFlood flood-color="#2fcd94" flood-opacity="0.161"/>
      <feComposite operator="in" in2="blur"/>
      <feComposite in="SourceGraphic"/>
    </filter>
  </defs>
  <g transform="matrix(1, 0, 0, 1, 0, 0)" filter="url(#list)">
    <path id="list-2" data-name="list" d="M80,368H16A16,16,0,0,0,0,384v64a16,16,0,0,0,16,16H80a16,16,0,0,0,16-16V384A16,16,0,0,0,80,368ZM80,48H16A16,16,0,0,0,0,64v64a16,16,0,0,0,16,16H80a16,16,0,0,0,16-16V64A16,16,0,0,0,80,48Zm0,160H16A16,16,0,0,0,0,224v64a16,16,0,0,0,16,16H80a16,16,0,0,0,16-16V224A16,16,0,0,0,80,208ZM496,384H176a16,16,0,0,0-16,16v32a16,16,0,0,0,16,16H496a16,16,0,0,0,16-16V400A16,16,0,0,0,496,384Zm0-320H176a16,16,0,0,0-16,16v32a16,16,0,0,0,16,16H496a16,16,0,0,0,16-16V80A16,16,0,0,0,496,64Zm0,160H176a16,16,0,0,0-16,16v32a16,16,0,0,0,16,16H496a16,16,0,0,0,16-16V240A16,16,0,0,0,496,224Z" transform="translate(9.5 -41.5)" fill="#2fcd94" stroke="#2fcd94" stroke-width="1"/>
  </g>
</svg>
