<svg xmlns="http://www.w3.org/2000/svg" xmlns:xlink="http://www.w3.org/1999/xlink" width="656.926" height="395" viewBox="0 0 656.926 395">
  <defs>
    <filter id="mixcloud" x="0" y="0" width="656.926" height="395" filterUnits="userSpaceOnUse">
      <feOffset dy="3" input="SourceAlpha"/>
      <feGaussianBlur stdDeviation="3" result="blur"/>
      <feFlood flood-color="#2fcd94" flood-opacity="0.161"/>
      <feComposite operator="in" in2="blur"/>
      <feComposite in="SourceGraphic"/>
    </filter>
  </defs>
  <g transform="matrix(1, 0, 0, 1, 0, 0)" filter="url(#mixcloud)">
    <path id="mixcloud-2" data-name="mixcloud" d="M424.43,219.729C416.124,134.727,344.135,68,256.919,68A168.586,168.586,0,0,0,97.714,182.074C43.169,190.1,1.084,236.9,1.084,293.656c0,62.3,50.668,112.966,113.243,112.966H403.941c52.329,0,94.969-42.362,94.969-94.693,0-45.131-32.118-83.063-74.48-92.2Zm-20.489,144.53H114.327a70.6,70.6,0,1,1,49.838-120.442c19.963,19.963,50.133-10.227,30.18-30.18a115.2,115.2,0,0,0-52.053-29.349A126.071,126.071,0,0,1,256.92,110.362c69.5,0,125.979,56.483,125.979,125.7a127.429,127.429,0,0,1-6.369,39.594c-8.943,27.517,32.133,38.939,40.147,13.29a163.253,163.253,0,0,0,6.369-25.472,52.11,52.11,0,0,1-19.105,100.783Zm235.069-52.33a218.9,218.9,0,0,1-37.1,122.657A21.342,21.342,0,0,1,584.188,444c-16.317,0-27.127-18.826-17.443-32.949a178.776,178.776,0,0,0,0-197.967c-15.655-22.831,19.361-47.24,35.163-23.534a217.342,217.342,0,0,1,37.1,122.379Zm-70.88,0a157.158,157.158,0,0,1-26.857,88.325,21.235,21.235,0,0,1-35.163-23.812,115.686,115.686,0,0,0,0-129.025c-15.761-22.986,19.008-47.1,35.163-23.535a155.633,155.633,0,0,1,26.857,88.047Z" transform="translate(8.42 -61.5)" fill="#2fcd94" stroke="#2fcd94" stroke-width="1"/>
  </g>
</svg>
