<svg xmlns="http://www.w3.org/2000/svg" xmlns:xlink="http://www.w3.org/1999/xlink" width="514.996" height="514.958" viewBox="0 0 514.996 514.958">
  <defs>
    <filter id="reverbnation" x="0" y="0" width="514.996" height="514.958" filterUnits="userSpaceOnUse">
      <feOffset dy="3" input="SourceAlpha"/>
      <feGaussianBlur stdDeviation="3" result="blur"/>
      <feFlood flood-color="#2fcd94" flood-opacity="0.161"/>
      <feComposite operator="in" in2="blur"/>
      <feComposite in="SourceGraphic"/>
    </filter>
  </defs>
  <g transform="matrix(1, 0, 0, 1, 0, 0)" filter="url(#reverbnation)">
    <path id="reverbnation-2" data-name="reverbnation" d="M540.791,51.777V505.124a15.252,15.252,0,0,0-1.049,2.071C535.567,519.581,526.4,526.4,513.2,526.408q-220.319.059-440.638-.092a30.962,30.962,0,0,1-13.026-2.9c-10.724-5.2-14.747-14.523-14.741-26.164q.079-218.865.04-437.73A43.694,43.694,0,0,1,45,54.685C46.11,44.561,51.334,37.3,60.435,32.828c1.84-.91,3.8-1.583,5.7-2.361H519.481c3.66,1.867,7.492,3.449,10.942,5.652C536.108,39.753,538.357,45.874,540.791,51.777Zm-42.56,181.307-.257-1.181h-5.151l-141.893-.02c-8.145,0-9.227-.785-11.786-8.508q-22.23-67.233-44.466-134.467c-.712-2.17-1.616-4.274-2.935-7.723-1.266,3.588-2.058,5.659-2.737,7.769q-21.706,66.9-43.391,133.8c-2.79,8.614-3.522,9.135-12.749,9.128q-70.221-.04-140.442-.086H87.312a15.3,15.3,0,0,0,4.894,5.461q56.875,41.143,113.77,82.233c6.45,4.663,6.609,5.217,4.109,12.881q-22.447,68.935-44.888,137.89c-.468,1.438-.791,2.928-1.431,5.329,2.823-1.939,4.828-3.265,6.773-4.67Q227.82,429.538,285.1,388.135c7.308-5.283,8.073-5.283,15.262-.046Q357.08,429.432,413.8,470.782c1.754,1.28,3.548,2.506,6.325,4.458-.791-2.928-1.174-4.617-1.708-6.252q-21.834-66.848-43.714-133.7c-3.291-10.058-3.192-10.421,5.553-16.752q37.633-27.265,75.28-54.511,21.346-15.458,42.695-30.941Z" transform="translate(-35.3 -23.97)" fill="#2fcd94" stroke="#2fcd94" stroke-width="1"/>
  </g>
</svg>
